<svg xmlns="http://www.w3.org/2000/svg" viewBox="0 0 172.5 54.66"><title>Riot Games logo</title><path d="M583.34,531.74l9.59,1.61.59,6H579.29l.25-2.27,10.19-.41v-1.09l-9.78-1.68.59-6h11.85l.23,2.39-9.09.34ZM501,534.62l.14-2.27h6.5l.39,7H493.16l1.16-11.55h13l.16,2.39-10.07.23-.32,6.34,7.32.2v-2.27Zm62.82.09v2l9.32.23v2.27H559.89l.39-11.55h12.57V530l-9.32.2v2h7.07v2.27Z" transform="translate(-425.75 -484.67)" style="fill:#d1363a"/><path d="M525.49,539.31h4l-3.16-11.55H517l-3.14,11.55h4l.61-2.91h6.48Zm-6.59-5.12.8-3.77,3.84-.18.82,3.8Z" transform="translate(-425.75 -484.67)" style="fill:#d1363a"/><path d="M553.71,539.31l-1.18-11.55h-3.34l-4.82,5.5-4.8-5.5H536.2L535,539.31H539l.39-7.48,5,5.09,5-5.09.39,7.48Z" transform="translate(-425.75 -484.67)" style="fill:#d1363a"/><path d="M524,521.19H513.63l-2.75-12.6-6.66,3.62-.23,9h-9.25L497.6,493l-5.91.2.86-7.75h26.4l3.66,16.78-5.37,2.91Zm-11.62-28.67-7.59.25-.3,11,8.75-4.09Z" transform="translate(-425.75 -484.67)" style="fill:#d1363a"/><path d="M536.86,485.44H529l-.73,35.74h9.53Zm60.57,0,.82,7.82-9.64-.32,2.82,28.24H581.9l-.8-28.51-7.75-.25-.2-7Z" transform="translate(-425.75 -484.67)" style="fill:#d1363a"/><path d="M544.39,485.47h24.56l1.75,35.72H543.41Zm8.25,28.26,8.69-.27V493l-9.09-.27Z" transform="translate(-425.75 -484.67)" style="fill:#d1363a"/><path d="M425.75,500.59l33.79-15.92,19.76,4.77-3.52,34.95h-10l-1.86-25.46-1.07.34L461,524.39h-7.59l-3.62-21.12-1.07.32.27,20.8h-7.16L437.73,507l-1.07.34,1.21,17.07H431Zm25.51,27.24,2.48,6.39,20.46,5.07,1.07-10.21Z" transform="translate(-425.75 -484.67)" style="fill:#d1363a"/></svg>